<svg width="30" height="30" viewBox="0 0 30 30" fill="none" xmlns="http://www.w3.org/2000/svg">
<path d="M25.4941 10.565V21.2044C25.4941 22.1908 25.0896 23.1187 24.4038 23.7058C19.324 28.0543 12.3815 28.0543 7.30172 23.7058C6.6159 23.1187 6.21142 22.1908 6.21142 21.2044V11.2741M18.4822 6.71597L27.7593 9.99186C28.4965 10.2522 29 11.0384 29 11.9293V22.6331M29 26.3471V29M16.7135 14.1166L27.7786 9.64097C29.3438 9.00789 29.3438 6.44987 27.7786 5.81679L16.7135 1.3412C15.5888 0.886267 14.3637 0.886267 13.239 1.3412L2.17388 5.81679C0.60871 6.44987 0.608707 9.00789 2.17387 9.64097L13.239 14.1166C14.3637 14.5715 15.5888 14.5715 16.7135 14.1166Z" stroke="#1E3045" stroke-width="2" stroke-linecap="round" stroke-linejoin="round"/>
</svg>
