<svg width="30" height="31" viewBox="0 0 30 31" fill="none" xmlns="http://www.w3.org/2000/svg">
<path d="M2.17387 10.141C0.608707 9.50789 0.60871 6.94987 2.17388 6.31679L13.239 1.8412C14.3637 1.38627 15.5888 1.38627 16.7135 1.8412L27.7786 6.31679C29.3438 6.94987 29.3438 9.50789 27.7786 10.141L16.7135 14.6166C15.5888 15.0715 14.3637 15.0715 13.239 14.6166L2.17387 10.141Z" fill="#2383FF"/>
<path d="M25.4941 11.065V21.7044C25.4941 22.6908 25.0896 23.6187 24.4038 24.2058C19.324 28.5543 12.3815 28.5543 7.30172 24.2058C6.6159 23.6187 6.21142 22.6908 6.21142 21.7044V11.7741M18.4822 7.21597L27.7593 10.4919C28.4965 10.7522 29 11.5384 29 12.4293V23.1331M29 26.8471V29.5M16.7135 14.6166L27.7786 10.141C29.3438 9.50789 29.3438 6.94987 27.7786 6.31679L16.7135 1.8412C15.5888 1.38627 14.3637 1.38627 13.239 1.8412L2.17388 6.31679C0.60871 6.94987 0.608707 9.50789 2.17387 10.141L13.239 14.6166C14.3637 15.0715 15.5888 15.0715 16.7135 14.6166Z" stroke="#2383FF" stroke-width="2" stroke-linecap="round" stroke-linejoin="round"/>
</svg>
