<svg width="33" height="30" viewBox="0 0 33 30" fill="none" xmlns="http://www.w3.org/2000/svg">
<path d="M7.14475 22.5815C7.37772 21.9443 7.10703 21.254 6.55541 20.859C6.29991 20.6761 6.04776 20.4899 5.8032 20.293C4.41217 19.1835 3.25667 17.8565 2.54874 16.1697C1.39912 13.4355 1.65809 10.7961 3.16517 8.2865C4.72846 5.68348 7.04874 4.05495 9.76649 3.01837C14.2714 1.29884 18.8288 1.21375 23.384 2.7972C26.0489 3.72321 28.3716 5.20942 30.0931 7.58033C32.5611 10.9831 32.3888 15.3335 29.677 18.5587C27.4797 21.1714 24.6379 22.5908 21.4515 23.3723C19.7217 23.7971 15.246 23.0709 14.0945 24.0455C11.6686 26.1624 8.88546 27.5015 5.7939 28.1772C5.51265 28.238 5.22437 28.2769 4.93958 28.3194C4.57864 28.3741 4.28332 28.2708 4.09815 27.9208C3.91417 27.5708 3.98096 27.2524 4.21065 26.9632C4.47785 26.6278 4.74973 26.2949 5.04152 25.9862C5.96575 25.0125 6.68036 23.8516 7.14475 22.5815Z" stroke="black" stroke-width="2" stroke-linecap="round" stroke-linejoin="round"/>
</svg>
