<svg width="30" height="31" viewBox="0 0 30 31" fill="none" xmlns="http://www.w3.org/2000/svg">
<path d="M19.5684 1.5H10.4316C7.13022 1.5 5.47954 1.5 4.21858 2.14249C3.10942 2.70764 2.20764 3.60942 1.64249 4.71858C1 5.97954 1 7.63022 1 10.9316V20.0684C1 23.3698 1 25.0205 1.64249 26.2814C2.20764 27.3906 3.10942 28.2924 4.21858 28.8575C5.47954 29.5 7.13022 29.5 10.4316 29.5H19.5684C22.8698 29.5 24.5205 29.5 25.7814 28.8575C26.8906 28.2924 27.7924 27.3906 28.3575 26.2814C29 25.0205 29 23.3698 29 20.0684V10.9316C29 7.63022 29 5.97954 28.3575 4.71858C27.7924 3.60942 26.8906 2.70764 25.7814 2.14249C24.5205 1.5 22.8698 1.5 19.5684 1.5Z" fill="#2383FF" stroke="#2383FF" stroke-width="2" stroke-linecap="round" stroke-linejoin="round"/>
<path d="M14.9996 18.4017C11.6902 18.4017 8.84341 19.8416 7.58038 22.2063C6.8122 23.6446 8.20542 25.0454 9.83525 25.0454H20.164C21.7939 25.0454 23.1871 23.6446 22.4189 22.2063C21.1559 19.8416 18.3091 18.4017 14.9996 18.4017Z" fill="#E3F4FF"/>
<path d="M18.6885 10.2817C18.6885 12.3202 17.0369 13.9726 14.9996 13.9726C12.9623 13.9726 11.3108 12.3202 11.3108 10.2817C11.3108 8.2433 12.9623 6.59082 14.9996 6.59082C17.0369 6.59082 18.6885 8.2433 18.6885 10.2817Z" fill="#E3F4FF"/>
</svg>
